<svg width="60" height="71" viewBox="0 0 60 71" fill="none" xmlns="http://www.w3.org/2000/svg">
<path d="M25.5324 71C17.6659 71 11.4852 68.6445 6.99009 63.9336C2.60737 59.1106 0.416016 52.4368 0.416016 43.9123C0.416016 35.5 2.21405 27.985 5.81013 21.3673C9.4062 14.7496 14.3508 9.53396 20.6439 5.72037C26.9371 1.90679 34.073 0 42.0518 0C47.4459 0 51.7163 0.897318 54.8628 2.69195C58.0094 4.48658 59.5827 6.95419 59.5827 10.0948C59.5827 12.8989 58.2342 15.6469 55.5371 18.3389C54.5257 19.3483 53.1772 20.3017 51.4915 21.199C49.9182 21.9842 48.6821 22.3768 47.7831 22.3768C46.7717 22.3768 45.9288 21.9842 45.2546 21.199C44.1308 19.9652 42.6699 18.7875 40.8719 17.6659C39.0738 16.5442 36.5453 15.9834 33.2864 15.9834C27.7799 15.9834 23.2848 17.8902 19.8011 21.7038C16.3174 25.4052 14.5756 30.2844 14.5756 36.3412C14.5756 41.8373 16.1488 46.2678 19.2954 49.6327C22.442 52.9976 26.5999 54.6801 31.7693 54.6801C34.4664 54.6801 37.3882 54.2314 40.5347 53.3341C43.7937 52.3246 46.6593 50.9226 49.1316 49.128C50.3677 48.0063 51.6601 47.4455 53.0086 47.4455C55.2562 47.4455 56.3799 48.8476 56.3799 51.6517C56.3799 55.3531 54.5257 58.8862 50.8172 62.2512C48.0078 64.831 44.2432 66.9621 39.5233 68.6445C34.9159 70.2148 30.2522 71 25.5324 71Z" fill="#001815"/>
</svg>
